<svg xmlns="http://www.w3.org/2000/svg" width="190.97" height="190.835" viewBox="0 0 190.97 190.835">
  <path id="Caminho_1" data-name="Caminho 1" d="M1133.5,1155.8c-2.9,3.2-5.3,6.2-7.9,8.9-19.4,19.5-38.8,39-58.4,58.2a23.8,23.8,0,0,1-11.1,5.8c-6.7,1.4-12.7-2.4-15.7-8.2a15.978,15.978,0,0,1,2.5-18.1c5.4-5.7,11-11.1,16.6-16.7,17.2-17.2,34.4-34.4,52-51.9-1.4-1.4-2.6-2.7-3.8-4-21.1-21.1-42.1-42.2-63.3-63.2-5.3-5.2-7.1-11.2-4.5-18.2,4-10.8,17.8-13.5,26.3-5.1,12.6,12.4,25,24.9,37.5,37.4L1134,1111c1.5-1.4,2.8-2.6,4.1-3.8l63.6-63.6c5.6-5.6,13.3-6.8,19.7-3.3a14.878,14.878,0,0,1,7.6,16.9,23.124,23.124,0,0,1-5.6,9.7c-20.7,21-41.6,41.8-62.5,62.7-1.3,1.3-2.5,2.6-3.9,4.1,1.4,1.5,2.6,2.8,3.9,4.1,20.7,20.7,41.5,41.4,62.1,62.3a24.18,24.18,0,0,1,6.1,10c1.9,7-1.5,13.6-7.5,17a16.057,16.057,0,0,1-19-2.4c-7.8-7.5-15.4-15.3-23-22.9C1164.4,1186.7,1149.5,1171.8,1133.5,1155.8Z" transform="translate(-1038.658 -1038.33)" fill="#fff"/>
</svg>