<svg xmlns="http://www.w3.org/2000/svg" width="254.938" height="254.889" viewBox="0 0 254.938 254.889">
  <g id="open-full-screen-btn" transform="translate(-1006.499 -1006.211)">
    <path id="Caminho_2" data-name="Caminho 2" d="M1091.1,1039.4c0,6.3.3,12.7-.1,19-.9,17.2-15.1,31.6-32.3,32.4-12.5.5-25,.4-37.5.2-9.1-.2-14.8-6-14.7-14.2.1-7.9,5.8-13.5,14.7-13.8,10.8-.3,21.6,0,32.5-.1,7,0,9.4-2.4,9.4-9.3.1-10.2-.1-20.3.1-30.5a23.6,23.6,0,0,1,1.1-7.9c2-6.1,8.1-9.6,14.6-8.9a13.906,13.906,0,0,1,12.2,12c.1.7.1,1.3.2,2v19C1091.2,1039.4,1091.2,1039.4,1091.1,1039.4Z" fill="#fff"/>
    <path id="Caminho_3" data-name="Caminho 3" d="M1227.9,1090.9c-6,0-12,.2-18,0a34.447,34.447,0,0,1-33-34.7v-35c0-8.7,5.5-14.6,13.5-14.8s14,5.4,14.3,14.1c.3,10.6.1,21.3.1,32,0,8.6,2,10.5,10.7,10.5,9.7,0,19.3-.1,29,.1a26.367,26.367,0,0,1,7.9,1c6.2,2,9.8,8.4,8.9,15a13.348,13.348,0,0,1-12.4,11.7c-7,.3-14,0-21,.1Z" fill="#fff"/>
    <path id="Caminho_4" data-name="Caminho 4" d="M1039.4,1176.6h17.5c17.8.2,33.3,14.3,34.1,32,.6,12.8.4,25.6.2,38.4-.2,8.4-6,14-13.8,14-7.8.1-13.7-5.4-14-13.9-.4-10.1-.1-20.3-.1-30.5,0-10.9-1.3-12.2-12.5-12.2-9.7,0-19.3.1-29-.1-9.3-.2-15.3-6-15.1-14.3a13.532,13.532,0,0,1,13.3-13.5C1026.4,1176.5,1032.9,1176.6,1039.4,1176.6Z" fill="#fff"/>
    <path id="Caminho_5" data-name="Caminho 5" d="M1176.9,1227.8v-17a34.67,34.67,0,0,1,34-34.2q18-.15,36,0c8.3,0,14.2,5.5,14.5,13.3a13.445,13.445,0,0,1-13.4,14.4c-11,.4-22,.2-33,.2-8,0-10.1,2.1-10.2,10,0,10.5.2,21-.1,31.5-.2,9.2-5.8,15.1-13.9,15.1-7.7,0-13.8-5.6-14-13.3C1176.7,1241.1,1176.9,1234.4,1176.9,1227.8Z" fill="#fff"/>
  </g>
</svg>