<svg id="ed52wpvwme1" xmlns="http://www.w3.org/2000/svg" xmlns:xlink="http://www.w3.org/1999/xlink" viewBox="0 0 155.660000 73.350000" shape-rendering="geometricPrecision" text-rendering="geometricPrecision" width="155.660000" height="73.350000"><style><![CDATA[#ed52wpvwme2_to {animation: ed52wpvwme2_to__to 2000ms linear infinite normal forwards}@keyframes ed52wpvwme2_to__to { 0% {transform: translate(-40.118252px,0.361797px)} 25% {transform: translate(-40.118252px,0.361797px);animation-timing-function: cubic-bezier(0.500000,0,0.500000,1)} 75% {transform: translate(38.660004px,0.361797px)} 100% {transform: translate(38.660004px,0.361797px)} }#ed52wpvwme2 {animation: ed52wpvwme2_c_o 2000ms linear infinite normal forwards}@keyframes ed52wpvwme2_c_o { 0% {opacity: 0;animation-timing-function: cubic-bezier(0.500000,0,0.500000,1)} 25% {opacity: 1;animation-timing-function: cubic-bezier(0.500000,0,0.500000,1)} 50% {opacity: 1} 75% {opacity: 0} 100% {opacity: 0} }]]></style><g id="ed52wpvwme2_to" transform="translate(-40.118252,0.361797)"><g id="ed52wpvwme2" transform="translate(0,0)" opacity="0"><path id="ed52wpvwme3" d="M62.610000,17.670000C65.048401,13.428737,64.214587,8.063030,60.604098,4.761746C56.993610,1.460461,51.574883,1.109098,47.568294,3.916473C43.561706,6.723849,42.041937,11.936943,43.912195,16.457590C45.782453,20.978236,50.541079,23.593867,55.360000,22.750000" fill="none" stroke="rgb(255,255,255)" stroke-width="4" stroke-miterlimit="10"/><line id="ed52wpvwme4" x1="86.693734" y1="22.907325" x2="91.990000" y2="31.060000" fill="none" stroke="rgb(255,255,255)" stroke-width="4" stroke-miterlimit="10"/><path id="ed52wpvwme5" d="M88.590000,17.470000C87.561550,18.059282,86.821180,19.046105,86.543058,20.198324C86.264936,21.350544,86.473614,22.566447,87.120000,23.560000L84.700000,19.840000C83.455480,17.837907,80.874563,17.139182,78.790000,18.240000C77.762582,18.832967,77.024205,19.822330,76.748081,20.976000C76.471956,22.129669,76.682384,23.346123,77.330000,24.340000L75.740000,21.900000C74.566268,20.019511,72.191661,19.283297,70.160000,20.170000C69.097088,20.665180,68.282504,21.572960,67.904906,22.683097C67.527308,23.793234,67.619453,25.009426,68.160000,26.050000L58.460000,11.460000C57.079288,9.460729,54.339271,8.959288,52.340000,10.340000C50.340729,11.720712,49.839288,14.460729,51.220000,16.460000L67.390000,41.360000C67.500880,41.530656,67.497261,41.751489,67.380849,41.918421C67.264436,42.085352,67.058461,42.165069,66.860000,42.120000L58.340000,40.120000C57.287109,39.895001,56.188823,40.154435,55.347902,40.826785C54.506980,41.499134,54.012216,42.513406,54,43.590000C54.027317,45.125809,55.003188,46.484063,56.450000,47L68.530000,51.720000C74.740596,54.080129,80.278606,57.925493,84.660000,62.920000C85.660000,64.060000,89.900000,69.290000,90.750000,70.600000L113,56.140000C113,56.140000,106.530000,46.380000,104.560000,39.850000C102.742083,33.630268,100.048421,27.700843,96.560000,22.240000L94.500000,19.060000C93.252257,17.061530,90.672050,16.367363,88.590000,17.470000Z" fill="none" stroke="rgb(255,255,255)" stroke-width="4" stroke-miterlimit="10"/><line id="ed52wpvwme6" x1="68.190000" y1="26.050000" x2="77.540000" y2="40.450000" fill="none" stroke="rgb(255,255,255)" stroke-width="4" stroke-miterlimit="10"/><line id="ed52wpvwme7" x1="75.400000" y1="21.370000" x2="84.750000" y2="35.770000" fill="none" stroke="rgb(255,255,255)" stroke-width="4" stroke-miterlimit="10"/></g></g></svg>